<svg xmlns="http://www.w3.org/2000/svg" width="138" height="25" viewBox="0 0 138 25">
    <g fill="#FFF" fill-rule="evenodd">
        <path d="M0 19.768V5.446c0-.17.075-.316.225-.437.15-.12.347-.18.59-.18H4.61c1.401 0 2.524.372 3.367 1.117.844.745 1.265 1.919 1.265 3.522v6.278c0 1.603-.421 2.777-1.265 3.522-.843.745-1.966 1.117-3.367 1.117H.815c-.243 0-.44-.06-.59-.18A.543.543 0 0 1 0 19.767zm1.801-1h2.81c.9 0 1.597-.252 2.09-.756.493-.503.74-1.259.74-2.266V9.468c0-1.007-.247-1.763-.74-2.267-.493-.503-1.19-.755-2.09-.755H1.8v12.322zm9.178.872c0-.028.015-.085.043-.17l4.375-14.152c.128-.411.5-.617 1.115-.617.614 0 .986.206 1.115.617L22 19.47c0 .028.004.057.011.085.007.029.01.05.01.064 0 .199-.117.376-.353.532-.236.156-.49.234-.761.234-.343 0-.558-.135-.644-.404l-.943-3.171h-5.64l-.943 3.17c-.086.27-.308.405-.665.405-.257 0-.504-.07-.74-.213-.236-.142-.354-.319-.354-.532zm3.11-4.299h4.998L16.61 7.34 14.09 15.34zm13.981.533V9.468c0-1.603.418-2.777 1.254-3.522.837-.745 1.955-1.117 3.356-1.117 1.401 0 2.524.372 3.367 1.117.844.745 1.265 1.919 1.265 3.522v6.406c0 1.603-.421 2.777-1.265 3.522-.843.744-1.966 1.117-3.367 1.117-1.4 0-2.52-.373-3.356-1.117-.836-.745-1.254-1.92-1.254-3.522zm1.801 0c0 2.014.937 3.021 2.81 3.021.9 0 1.597-.251 2.09-.755.493-.504.74-1.26.74-2.266V9.468c0-1.007-.247-1.763-.74-2.267-.493-.503-1.19-.755-2.09-.755-1.873 0-2.81 1.007-2.81 3.022v6.406zm10.336 3.873V5.446c0-.412.3-.617.9-.617.301 0 .555.088.762.266.207.177.411.464.611.861l5.34 10.364V5.446c0-.199.09-.351.268-.458.179-.106.39-.16.632-.16.243 0 .454.054.633.16a.504.504 0 0 1 .268.458v14.3c0 .2-.09.355-.268.469-.179.113-.39.17-.633.17-.457 0-.836-.27-1.136-.809L42.009 8.872v10.875c0 .198-.09.354-.269.468-.178.113-.39.17-.632.17-.243 0-.454-.057-.633-.17a.528.528 0 0 1-.268-.468zm12.46 0V5.467c0-.199.081-.355.246-.468a.976.976 0 0 1 .568-.17h7.634c.2 0 .354.078.461.234.107.156.16.34.16.553a.994.994 0 0 1-.17.585.526.526 0 0 1-.451.245h-6.648v5.405h3.346a.54.54 0 0 1 .45.224c.114.149.171.33.171.542a.836.836 0 0 1-.16.5.534.534 0 0 1-.461.224h-3.346v5.427h6.648c.186 0 .336.081.45.244a.994.994 0 0 1 .172.586.953.953 0 0 1-.161.553.526.526 0 0 1-.461.234h-7.634a.976.976 0 0 1-.568-.17.539.539 0 0 1-.247-.468z"/>
        <path fill-rule="nonzero" d="M87.048 0v.688c0 .337.041.665.12.979h-16.27a1 1 0 0 0-1 1v19.666a1 1 0 0 0 1 1h64.623a1 1 0 0 0 1-1V2.667a1 1 0 0 0-1-1H95.967c.078-.314.12-.642.12-.98V.095 0H136a2 2 0 0 1 2 2v21a2 2 0 0 1-2 2H70.146a2 2 0 0 1-2-2V2a2 2 0 0 1 2-2h16.902z"/>
        <path d="M75.195 19.68V5.32c0-.171.075-.317.224-.438.149-.12.344-.181.586-.181h3.772c1.393 0 2.508.373 3.346 1.12.839.747 1.258 1.924 1.258 3.532v6.294c0 1.608-.42 2.785-1.258 3.532-.838.747-1.953 1.12-3.346 1.12h-3.772c-.242 0-.437-.06-.586-.181a.546.546 0 0 1-.224-.438zm1.709-.877h2.767c.887 0 1.573-.253 2.059-.76.485-.506.728-1.266.728-2.279V9.45c0-1.013-.243-1.773-.728-2.28-.486-.506-1.172-.76-2.06-.76h-2.766v12.393zm10.468.856V5.341c0-.2.08-.356.243-.47a.956.956 0 0 1 .563-.17h7.55c.199 0 .35.078.457.235.106.156.159.341.159.554 0 .228-.057.424-.17.587a.519.519 0 0 1-.445.246h-6.576v5.42h3.31c.183 0 .331.074.445.224.113.149.17.33.17.544a.846.846 0 0 1-.16.501.525.525 0 0 1-.456.224h-3.309v5.441h6.576c.183 0 .332.082.445.246.113.163.17.359.17.587a.965.965 0 0 1-.16.554.518.518 0 0 1-.455.235h-7.551a.956.956 0 0 1-.563-.17.542.542 0 0 1-.243-.47zm2.99-16.719c0-.342.13-.592.387-.752L94.23.068A.868.868 0 0 1 94.528 0c.238 0 .436.12.595.359.159.24.238.507.238.803 0 .388-.139.661-.417.82l-3.362 1.984c-.159.091-.268.137-.327.137-.238 0-.446-.12-.625-.36a1.31 1.31 0 0 1-.268-.803zm7.904 12.896V9.378c0-1.602.423-2.782 1.268-3.54.846-.758 1.95-1.137 3.314-1.137 1.393 0 2.508.354 3.347 1.062.838.708 1.257 1.598 1.257 2.67 0 .387-.071.648-.213.784-.142.136-.37.204-.682.204-.568 0-.867-.208-.895-.622-.086-1.645-1.009-2.468-2.77-2.468-1.89 0-2.835 1.016-2.835 3.047v6.458c0 2.03.966 3.046 2.898 3.046.554 0 1.016-.078 1.385-.236.37-.157.643-.386.82-.686.179-.3.296-.558.353-.773.056-.214.106-.5.149-.858.042-.415.34-.622.895-.622.312 0 .54.072.682.215.142.143.213.407.213.793 0 1.087-.423 1.992-1.268 2.714-.845.723-1.964 1.084-3.357 1.084-1.35 0-2.447-.38-3.293-1.137-.845-.758-1.268-1.938-1.268-3.54zm11.322 0V9.378c0-1.616.416-2.8 1.247-3.55.831-.752 1.943-1.127 3.335-1.127 1.393 0 2.508.375 3.347 1.126.838.751 1.257 1.935 1.257 3.55v6.459c0 1.616-.42 2.8-1.257 3.55-.839.751-1.954 1.127-3.347 1.127-1.392 0-2.504-.376-3.335-1.127-.831-.75-1.247-1.934-1.247-3.55zm1.923-.04c0 2.005.922 3.007 2.766 3.007.887 0 1.574-.25 2.06-.752.485-.501.728-1.253.728-2.256V9.42c0-1.003-.243-1.755-.729-2.257-.485-.501-1.172-.752-2.059-.752-1.844 0-2.766 1.003-2.766 3.009v6.376zm10.254 3.822v-14.3c0-.17.06-.312.182-.426a.736.736 0 0 1 .461-.191h3.928c1.43 0 2.582.33 3.455.99.872.66 1.309 1.748 1.309 3.266 0 2.34-1.066 3.724-3.198 4.15l3.176 5.98c.057.098.086.198.086.297 0 .227-.114.436-.343.628-.23.191-.472.287-.73.287-.3 0-.572-.234-.815-.702l-3.24-6.235h-2.469v6.256c0 .199-.09.355-.268.468-.179.114-.39.17-.633.17s-.454-.056-.633-.17a.528.528 0 0 1-.268-.468zm1.709-7.652h2.786c1.988 0 2.981-.93 2.981-2.789 0-1.844-.993-2.767-2.98-2.767h-2.787v5.556z"/>
    </g>
</svg>
