<?xml version="1.0" encoding="UTF-8"?>
<svg width="138px" height="25px" viewBox="0 0 138 25" version="1.1" xmlns="http://www.w3.org/2000/svg" xmlns:xlink="http://www.w3.org/1999/xlink">
    <!-- Generator: sketchtool 49.1 (51147) - http://www.bohemiancoding.com/sketch -->
    <title>058CD843-4464-4F68-A8D3-97EAB129F196</title>
    <desc>Created with sketchtool.</desc>
    <defs></defs>
    <g id="Website-2.0" stroke="none" stroke-width="1" fill="none" fill-rule="evenodd">
        <g id="products" transform="translate(-252.000000, -30.000000)" fill="#000000">
            <g id="Logo_white-Copy" transform="translate(252.000000, 30.000000)">
                <path d="M0,19.7679769 L0,5.44569831 C1.9839546e-16,5.27544749 0.075052722,5.1300271 0.225160418,5.00943277 C0.375268113,4.88883844 0.571834766,4.82854218 0.814866273,4.82854218 L4.6104276,4.82854218 C6.01143276,4.82854218 7.13364965,5.20096026 7.97711194,5.94580759 C8.82057423,6.69065493 9.24229904,7.8646586 9.24229904,9.46785382 L9.24229904,15.7458214 C9.24229904,17.3490166 8.82057423,18.5230203 7.97711194,19.2678676 C7.13364965,20.012715 6.01143276,20.385133 4.6104276,20.385133 L0.814866273,20.385133 C0.571834766,20.385133 0.375268113,20.3248368 0.225160418,20.2042424 C0.075052722,20.0836481 1.9839546e-16,19.9382277 0,19.7679769 Z M1.80128334,18.7677583 L4.6104276,18.7677583 C5.51107377,18.7677583 6.2079919,18.5159328 6.7012029,18.0122741 C7.1944139,17.5086154 7.4410157,16.7531387 7.4410157,15.7458214 L7.4410157,9.46785382 C7.4410157,8.46053647 7.1944139,7.70505979 6.7012029,7.20140111 C6.2079919,6.69774244 5.51107377,6.44591688 4.6104276,6.44591688 L1.80128334,6.44591688 L1.80128334,18.7677583 Z M10.9792508,19.6402894 C10.9792508,19.6119143 10.9935466,19.5551649 11.0221385,19.4700395 L15.3966838,5.31801084 C15.5253475,4.90657136 15.8970372,4.7008547 16.511764,4.7008547 C17.1264907,4.7008547 17.4981804,4.90657136 17.6268441,5.31801084 L22.0013894,19.4700395 C22.0013894,19.4984146 22.0049633,19.5267893 22.0121113,19.5551644 C22.0192593,19.5835396 22.0228332,19.6048206 22.0228332,19.6190082 C22.0228332,19.8176341 21.9048932,19.9949761 21.6690097,20.1510393 C21.4331262,20.3071026 21.1793765,20.385133 20.9077531,20.385133 C20.5646498,20.385133 20.3502134,20.2503532 20.2644376,19.9807894 L19.3209082,16.8098837 L13.6811758,16.8098837 L12.7376465,19.9807894 C12.6518707,20.2503532 12.4302864,20.385133 12.0728872,20.385133 C11.8155597,20.385133 11.5689579,20.3141963 11.3330743,20.1723206 C11.0971908,20.0304449 10.9792508,19.8531029 10.9792508,19.6402894 Z M14.088609,15.3414777 L19.0873706,15.3414777 L16.6103057,7.33972921 L14.088609,15.3414777 Z M28.0699987,15.8735089 L28.0699987,9.46785382 C28.0699987,7.8646586 28.4881496,6.69065493 29.3244639,5.94580759 C30.1607782,5.20096026 31.2794212,4.82854218 32.6804263,4.82854218 C34.0814315,4.82854218 35.2036484,5.20096026 36.0471107,5.94580759 C36.8905729,6.69065493 37.3122978,7.8646586 37.3122978,9.46785382 L37.3122978,15.8735089 C37.3122978,17.4767041 36.8905729,18.6507078 36.0471107,19.3955551 C35.2036484,20.1404024 34.0814315,20.5128205 32.6804263,20.5128205 C31.2794212,20.5128205 30.1607782,20.1404024 29.3244639,19.3955551 C28.4881496,18.6507078 28.0699987,17.4767041 28.0699987,15.8735089 Z M29.8712821,15.8735089 C29.8712821,17.8881436 30.8076541,18.8954458 32.6804263,18.8954458 C33.5810725,18.8954458 34.2779906,18.6436203 34.7712016,18.1399616 C35.2644126,17.6363029 35.5110144,16.8808262 35.5110144,15.8735089 L35.5110144,9.46785382 C35.5110144,8.46053647 35.2644126,7.70505979 34.7712016,7.20140111 C34.2779906,6.69774244 33.5810725,6.44591688 32.6804263,6.44591688 C30.8076541,6.44591688 29.8712821,7.45321912 29.8712821,9.46785382 L29.8712821,15.8735089 Z M40.2072174,19.7466957 L40.2072174,5.44569831 C40.2072174,5.03425883 40.5074283,4.82854218 41.1078591,4.82854218 C41.4080745,4.82854218 41.6618242,4.91721315 41.8691157,5.09455775 C42.0764073,5.27190236 42.2801218,5.55919631 42.4802654,5.95644822 L47.8197839,16.320415 L47.8197839,5.44569831 C47.8197839,5.24707236 47.9091324,5.09455828 48.087832,4.98815152 C48.2665317,4.88174476 48.4773941,4.82854218 48.7204256,4.82854218 C48.9634571,4.82854218 49.1743195,4.88174476 49.3530191,4.98815152 C49.5317188,5.09455828 49.6210673,5.24707236 49.6210673,5.44569831 L49.6210673,19.7466957 C49.6210673,19.9453216 49.5317188,20.1013825 49.3530191,20.2148831 C49.1743195,20.3283836 48.9634571,20.385133 48.7204256,20.385133 C48.2629545,20.385133 47.884117,20.1155733 47.5839016,19.5764457 L42.0085008,8.87197893 L42.0085008,19.7466957 C42.0085008,19.9453216 41.9191523,20.1013825 41.7404526,20.2148831 C41.561753,20.3283836 41.3508906,20.385133 41.1078591,20.385133 C40.8648276,20.385133 40.6539652,20.3283836 40.4752655,20.2148831 C40.2965659,20.1013825 40.2072174,19.9453216 40.2072174,19.7466957 Z M52.6660939,19.7466957 L52.6660939,5.46697956 C52.6660939,5.2683536 52.7482945,5.11229269 52.9126981,4.99879215 C53.0771018,4.8852916 53.2665206,4.82854218 53.4809601,4.82854218 L61.1149705,4.82854218 C61.3151141,4.82854218 61.4687935,4.90657263 61.5760132,5.06263588 C61.683233,5.21869913 61.7368421,5.40313476 61.7368421,5.61594828 C61.7368421,5.84294937 61.6796591,6.03802551 61.5652913,6.20118255 C61.4509235,6.36433958 61.3008181,6.44591688 61.1149705,6.44591688 L54.4673772,6.44591688 L54.4673772,11.8513534 L57.8126177,11.8513534 C57.9984653,11.8513534 58.1485708,11.925837 58.2629385,12.0748065 C58.3773063,12.2237759 58.4344893,12.4046647 58.4344893,12.6174782 C58.4344893,12.8019166 58.3808802,12.968618 58.2736604,13.1175875 C58.1664407,13.266557 58.0127613,13.3410406 57.8126177,13.3410406 L54.4673772,13.3410406 L54.4673772,18.7677583 L61.1149705,18.7677583 C61.3008181,18.7677583 61.4509235,18.8493356 61.5652913,19.0124927 C61.6796591,19.1756497 61.7368421,19.3707258 61.7368421,19.5977269 C61.7368421,19.8105405 61.683233,19.9949761 61.5760132,20.1510393 C61.4687935,20.3071026 61.3151141,20.385133 61.1149705,20.385133 L53.4809601,20.385133 C53.2665206,20.385133 53.0771018,20.3283836 52.9126981,20.2148831 C52.7482945,20.1013825 52.6660939,19.9453216 52.6660939,19.7466957 Z" id="Da-One"></path>
                <path d="M87.0483908,0 C87.0476741,0.0311632313 87.0473138,0.0624145371 87.0473138,0.09375 L87.0473138,0.6875 C87.0473138,1.02530503 87.0891881,1.35332978 87.1680292,1.66666667 L70.8987215,1.66666667 C70.3464368,1.66666667 69.8987215,2.11438192 69.8987215,2.66666667 L69.8987215,22.3333333 C69.8987215,22.8856181 70.3464368,23.3333333 70.8987215,23.3333333 L135.520728,23.3333333 C136.073013,23.3333333 136.520728,22.8856181 136.520728,22.3333333 L136.520728,2.66666667 C136.520728,2.11438192 136.073013,1.66666667 135.520728,1.66666667 L95.9665911,1.66666667 C96.0454322,1.35332978 96.0873065,1.02530503 96.0873065,0.6875 L96.0873065,0.09375 C96.0873065,0.0624145371 96.0869462,0.0311632313 96.0862295,-2.11636264e-16 L136,0 C137.104569,-2.02906125e-16 138,0.8954305 138,2 L138,23 C138,24.1045695 137.104569,25 136,25 L70.1455108,25 C69.0409413,25 68.1455108,24.1045695 68.1455108,23 L68.1455108,2 C68.1455108,0.8954305 69.0409413,2.02906125e-16 70.1455108,0 L87.0483908,0 Z" id="Rectangle" fill-rule="nonzero"></path>
                <path d="M75.1950464,19.6803349 L75.1950464,5.31966513 C75.1950464,5.14895795 75.26964,5.00314776 75.4188294,4.88223017 C75.5680188,4.76131259 75.763383,4.7008547 76.0049277,4.7008547 L79.7772694,4.7008547 C81.1697038,4.7008547 82.2850554,5.07427106 83.1233577,5.82111497 C83.9616601,6.56795888 84.380805,7.74510949 84.380805,9.3526021 L84.380805,15.6473979 C84.380805,17.2548905 83.9616601,18.4320411 83.1233577,19.178885 C82.2850554,19.9257289 81.1697038,20.2991453 79.7772694,20.2991453 L76.0049277,20.2991453 C75.763383,20.2991453 75.5680188,20.2386874 75.4188294,20.1177698 C75.26964,19.9968522 75.1950464,19.851042 75.1950464,19.6803349 Z M76.9040248,18.8034188 L79.6705553,18.8034188 C80.557539,18.8034188 81.2438851,18.5501356 81.7296142,18.0435617 C82.2153434,17.5369878 82.4582043,16.7771383 82.4582043,15.7639904 L82.4582043,9.44968484 C82.4582043,8.43653696 82.2153434,7.67668745 81.7296142,7.17011352 C81.2438851,6.66353958 80.557539,6.41025641 79.6705553,6.41025641 L76.9040248,6.41025641 L76.9040248,18.8034188 Z M87.371517,19.6589966 L87.371517,5.34100343 C87.371517,5.14184505 87.452824,4.98536581 87.6154404,4.87156103 C87.7780567,4.75775624 87.9654162,4.7008547 88.1775245,4.7008547 L95.7285423,4.7008547 C95.92651,4.7008547 96.0785187,4.77909432 96.1845728,4.9355759 C96.290627,5.09205748 96.3436533,5.27698749 96.3436533,5.49037146 C96.3436533,5.71798104 96.2870919,5.91358008 96.1739675,6.07717446 C96.060843,6.24076884 95.9123694,6.3225648 95.7285423,6.3225648 L89.1532178,6.3225648 L89.1532178,11.7424907 L92.4620908,11.7424907 C92.645918,11.7424907 92.7943915,11.8171739 92.907516,11.9665427 C93.0206404,12.1159115 93.0772018,12.2972852 93.0772018,12.5106691 C93.0772018,12.6956019 93.0241755,12.8627502 92.9181213,13.012119 C92.8120672,13.1614878 92.6600585,13.236171 92.4620908,13.236171 L89.1532178,13.236171 L89.1532178,18.6774352 L95.7285423,18.6774352 C95.9123694,18.6774352 96.060843,18.7592312 96.1739675,18.9228255 C96.2870919,19.0864199 96.3436533,19.282019 96.3436533,19.5096285 C96.3436533,19.7230125 96.290627,19.9079425 96.1845728,20.0644241 C96.0785187,20.2209057 95.92651,20.2991453 95.7285423,20.2991453 L88.1775245,20.2991453 C87.9654162,20.2991453 87.7780567,20.2422438 87.6154404,20.128439 C87.452824,20.0146342 87.371517,19.858155 87.371517,19.6589966 Z M90.3622291,2.94017094 C90.3622291,2.59828889 90.4911641,2.34757915 90.749038,2.18803419 L94.2303184,0.0683760684 C94.3493372,0.0227917949 94.448518,0 94.5278638,0 C94.7659012,0 94.9642628,0.119656923 95.1229544,0.358974359 C95.2816461,0.598291795 95.3609907,0.866095385 95.3609907,1.16239316 C95.3609907,1.54985949 95.2221376,1.82336103 94.9444272,1.98290598 L91.582165,3.96581197 C91.4234733,4.05698051 91.3143745,4.1025641 91.2548651,4.1025641 C91.0168276,4.1025641 90.808548,3.98290718 90.6300199,3.74358974 C90.4514918,3.50427231 90.3622291,3.23646872 90.3622291,2.94017094 Z M98.2662539,15.8357397 L98.2662539,9.3779355 C98.2662539,7.77599156 98.6889508,6.59600591 99.5343574,5.83794315 C100.379764,5.07988039 101.484459,4.7008547 102.848477,4.7008547 C104.240911,4.7008547 105.356263,5.0548504 106.194565,5.7628524 C107.032868,6.47085441 107.452012,7.36120722 107.452012,8.43393754 C107.452012,8.82012045 107.380971,9.08114758 107.238886,9.21702675 C107.096801,9.35290593 106.869468,9.4208445 106.55688,9.4208445 C105.98854,9.4208445 105.690166,9.21345308 105.661749,8.79866402 C105.576497,7.15381087 104.652958,6.33139663 102.891102,6.33139663 C101.00137,6.33139663 100.056518,7.34689943 100.056518,9.3779355 L100.056518,15.8357397 C100.056518,17.8667758 101.022682,18.8822786 102.95504,18.8822786 C103.509172,18.8822786 103.970942,18.8036129 104.340363,18.6462791 C104.709785,18.4889453 104.983294,18.2600996 105.160901,17.9597351 C105.338507,17.6593706 105.455726,17.4019192 105.51256,17.1873732 C105.569394,16.9728271 105.619123,16.68677 105.661749,16.3291932 C105.704374,15.9144041 106.002748,15.7070127 106.55688,15.7070127 C106.869468,15.7070127 107.096801,15.778527 107.238886,15.9215577 C107.380971,16.0645884 107.452012,16.3291913 107.452012,16.7153742 C107.452012,17.8024076 107.029315,18.7070632 106.183909,19.4293683 C105.338502,20.1516734 104.219599,20.5128205 102.827164,20.5128205 C101.477355,20.5128205 100.379764,20.1337948 99.5343574,19.3757321 C98.6889508,18.6176693 98.2662539,17.4376837 98.2662539,15.8357397 Z M109.588235,15.8357397 L109.588235,9.3779355 C109.588235,7.76168849 110.003828,6.57812712 110.835026,5.8272159 C111.666224,5.07630468 112.778024,4.7008547 114.170458,4.7008547 C115.562893,4.7008547 116.678244,5.07630468 117.516547,5.8272159 C118.354849,6.57812712 118.773994,7.76168849 118.773994,9.3779355 L118.773994,15.8357397 C118.773994,17.4519867 118.354849,18.6355481 117.516547,19.3864593 C116.678244,20.1373705 115.562893,20.5128205 114.170458,20.5128205 C112.778024,20.5128205 111.666224,20.1373705 110.835026,19.3864593 C110.003828,18.6355481 109.588235,17.4519867 109.588235,15.8357397 Z M111.510836,15.795164 C111.510836,17.8006772 112.433004,18.8034188 114.277366,18.8034188 C115.16435,18.8034188 115.850696,18.5527334 116.336425,18.0513551 C116.822155,17.5499768 117.065015,16.7979206 117.065015,15.795164 L117.065015,9.41851121 C117.065015,8.4157546 116.822155,7.66369842 116.336425,7.16232011 C115.850696,6.6609418 115.16435,6.41025641 114.277366,6.41025641 C112.433004,6.41025641 111.510836,7.41299798 111.510836,9.41851121 L111.510836,15.795164 Z M121.764706,19.6181831 L121.764706,5.3179767 C121.764706,5.1477353 121.825508,5.00586959 121.947114,4.89237532 C122.06872,4.77888105 122.222513,4.71504148 122.408499,4.7008547 L126.335638,4.7008547 C127.766296,4.7008547 128.917959,5.03069247 129.790661,5.69037791 C130.663363,6.35006335 131.099707,7.43888266 131.099707,8.95686851 C131.099707,11.2976878 130.033883,12.6808785 127.902201,13.106482 L131.078248,19.0861814 C131.135474,19.1854888 131.164087,19.2847948 131.164087,19.3841023 C131.164087,19.6110909 131.049636,19.8203428 130.82073,20.0118644 C130.591825,20.2033859 130.348617,20.2991453 130.091098,20.2991453 C129.79066,20.2991453 129.518839,20.0650669 129.275627,19.596903 L126.035201,13.3618428 L123.567327,13.3618428 L123.567327,19.6181831 C123.567327,19.8167981 123.477912,19.9728503 123.29908,20.0863446 C123.120247,20.1998389 122.909228,20.2565852 122.666016,20.2565852 C122.422804,20.2565852 122.211785,20.1998389 122.032953,20.0863446 C121.854121,19.9728503 121.764706,19.8167981 121.764706,19.6181831 Z M123.473684,11.965812 L126.260375,11.965812 C128.247792,11.965812 129.241486,11.0363477 129.241486,9.17739136 C129.241486,7.3326255 128.247792,6.41025641 126.260375,6.41025641 L123.473684,6.41025641 L123.473684,11.965812 Z" id="Décor"></path>
            </g>
        </g>
    </g>
</svg>